<svg xmlns="http://www.w3.org/2000/svg" version="1.1" xmlns:xlink="http://www.w3.org/1999/xlink" xmlns:svgjs="http://svgjs.dev/svgjs" width="64" height="64"><svg xmlns="http://www.w3.org/2000/svg" viewBox="0 0 64 64">
  <!-- Background -->
  <rect width="64" height="64" rx="12" fill="white"></rect>
  
  <!-- JSON Curly Braces -->
  <path d="M18 16C14 16 12 19 12 22V26C12 28 10 30 8 30C10 30 12 32 12 34V38C12 41 14 44 18 44" stroke="black" stroke-width="4" fill="none" stroke-linecap="round"></path>
  
  <path d="M46 16C50 16 52 19 52 22V26C52 28 54 30 56 30C54 30 52 32 52 34V38C52 41 50 44 46 44" stroke="black" stroke-width="4" fill="none" stroke-linecap="round"></path>
  
  <!-- Checkmark for "Clean" -->
  <path d="M20 32L28 40L44 24" stroke="black" stroke-width="5" fill="none" stroke-linecap="round" stroke-linejoin="round"></path>
</svg><style>@media (prefers-color-scheme: light) { :root { filter: none; } }
@media (prefers-color-scheme: dark) { :root { filter: none; } }
</style></svg>